<?xml version="1.0" encoding="UTF-8"?>
<svg version="1.1" xmlns="http://www.w3.org/2000/svg" width="656" height="656">
<path d="M0 0 C216.48 0 432.96 0 656 0 C656 216.48 656 432.96 656 656 C439.52 656 223.04 656 0 656 C0 439.52 0 223.04 0 0 Z " fill="#FEFEFE" transform="translate(0,0)"/>
<path d="M0 0 C0 167.31 0 334.62 0 507 C-12.29769449 507 -20.66205773 506.98773666 -29.53515625 498.69921875 C-35.75566177 491.48343234 -37.31783688 482.44505884 -37.18426514 473.2334137 C-37.18017962 472.37456965 -37.1760941 471.5157256 -37.17188478 470.63085598 C-37.1561614 467.76490884 -37.1262531 464.89928227 -37.09667969 462.03344727 C-37.0830512 459.97286644 -37.07051094 457.91227817 -37.05897522 455.85168457 C-37.03321686 451.41665621 -37.00248755 446.98169881 -36.96874237 442.54672432 C-36.91802576 435.51196144 -36.89546996 428.47728629 -36.87994385 421.44236755 C-36.87722654 420.25247791 -36.87450923 419.06258827 -36.87170959 417.83664137 C-36.86627625 415.40323724 -36.8609411 412.96983289 -36.85570192 410.53642833 C-36.82005475 394.16698978 -36.76962633 377.79833811 -36.62646484 361.42944336 C-36.53002002 350.3785799 -36.4841241 339.328746 -36.49506879 328.27745098 C-36.49891519 322.44070678 -36.4782608 316.60651026 -36.39571381 310.7702961 C-35.38884132 276.73701917 -35.38884132 276.73701917 -50.36318207 247.15092278 C-54.68185446 241.47580729 -57.2650465 234.5430109 -60 228 C-60.36432129 227.14067871 -60.72864258 226.28135742 -61.10400391 225.39599609 C-80.80265879 178.23310851 -83.19592264 124.3992691 -64.25 76.5625 C-52.69478721 48.80222052 -34.28976704 15.92506719 -7.10546875 0.77734375 C-5 0 -5 0 0 0 Z " fill="#015850" transform="translate(372,135)"/>
<path d="M0 0 C-2.64785132 2.97188907 -5.76078938 4.84169825 -9.125 6.9375 C-22.66773984 15.50717988 -35.53070515 24.94249363 -48 35 C-48.96550781 35.77085938 -49.93101562 36.54171875 -50.92578125 37.3359375 C-56.5294505 41.85374722 -61.91208732 46.56108844 -67.19921875 51.4453125 C-69.34058799 53.39852795 -71.50538912 55.29591876 -73.703125 57.18359375 C-78.70748975 61.54966772 -83.37879755 66.2326203 -88.0625 70.9375 C-88.92166016 71.79279297 -89.78082031 72.64808594 -90.66601562 73.52929688 C-95.65246703 78.523367 -100.4424701 83.61207562 -105 89 C-105.5364917 89.6297876 -106.0729834 90.2595752 -106.62573242 90.90844727 C-126.39469107 114.26421652 -143.19985433 139.23948997 -158 166 C-158.4017041 166.71687988 -158.8034082 167.43375977 -159.21728516 168.17236328 C-170.05183424 187.55637334 -178.36077112 208.18364853 -186 229 C-209.88740443 226.05612974 -233.70221395 221.4798919 -257.0625 215.6875 C-258.5326355 215.32434692 -258.5326355 215.32434692 -260.0324707 214.95385742 C-263.88773649 213.96196356 -266.65117739 213.23254841 -270 211 C-269.32693383 206.04108598 -267.30987386 201.82040478 -265.25 197.3125 C-264.85804443 196.45035889 -264.46608887 195.58821777 -264.06225586 194.69995117 C-243.23125515 149.36377632 -216.14442941 102.18053279 -177 70 C-176.08476562 69.19691406 -175.16953125 68.39382812 -174.2265625 67.56640625 C-128.71020989 27.73239576 -73.5605298 10.6543953 -15 1.125 C-13.90800293 0.94481323 -13.90800293 0.94481323 -12.79394531 0.76098633 C-8.46560911 0.09250344 -4.36232786 -0.10224206 0 0 Z " fill="#015850" transform="translate(416,18)"/>
<path d="M0 0 C28.08998788 -0.86652919 57.17375555 8.2732372 78.2890625 27.15625 C79.10503906 27.84203125 79.92101562 28.5278125 80.76171875 29.234375 C101.88293815 47.38491284 114.24758216 72.61411109 117.0390625 100.21875 C117.14077711 101.86354967 117.22604264 103.50951374 117.2890625 105.15625 C117.32902344 105.83816406 117.36898437 106.52007812 117.41015625 107.22265625 C118.15477539 130.30584959 110.61127344 152.22478002 100.1015625 172.40625 C99.67343262 173.22907471 99.24530273 174.05189941 98.80419922 174.8996582 C98.39314941 175.67011475 97.98209961 176.44057129 97.55859375 177.234375 C97.19354736 177.91918945 96.82850098 178.60400391 96.45239258 179.30957031 C95.25325484 181.21309137 93.93690189 182.6337092 92.2890625 184.15625 C91.79599609 182.37347656 91.79599609 182.37347656 91.29296875 180.5546875 C82.05977015 148.01912914 67.81520465 117.76554787 44.2890625 93.15625 C43.62003906 92.4240625 42.95101562 91.691875 42.26171875 90.9375 C17.38623661 64.62600307 -21.5501706 50.18611774 -57.31274414 48.95092773 C-58.91543129 48.90995255 -60.51822689 48.87305358 -62.12109375 48.83984375 C-63.40046059 48.8086721 -63.40046059 48.8086721 -64.70567322 48.77687073 C-67.39485661 48.71217801 -70.0841264 48.652869 -72.7734375 48.59375 C-74.61133659 48.55048816 -76.44922736 48.50687161 -78.28710938 48.46289062 C-82.76163321 48.35658066 -87.23624277 48.25509438 -91.7109375 48.15625 C-79.83147346 30.07813263 -60.88988555 18.29426 -41.7109375 9.15625 C-40.80214844 8.70636719 -39.89335937 8.25648437 -38.95703125 7.79296875 C-27.09009808 2.44768929 -12.87319872 0.74197111 0 0 Z " fill="#015850" transform="translate(428.7109375,69.84375)"/>
<path d="M0 0 C-0.65484375 0.7528125 -1.3096875 1.505625 -1.984375 2.28125 C-17.92609499 20.7680879 -31.56004742 40.44008938 -43 62 C-43.34772461 62.6501709 -43.69544922 63.3003418 -44.05371094 63.97021484 C-65.78048931 104.89074718 -76.70131285 150.20985286 -82 196 C-91.61878479 193.80754899 -100.42486315 190.09816831 -109.4375 186.1875 C-110.19591187 185.8607428 -110.95432373 185.5339856 -111.73571777 185.19732666 C-122.54450312 180.53258679 -133.21640189 175.6320449 -143.75 170.375 C-144.89009521 169.8080542 -146.03019043 169.2411084 -147.20483398 168.65698242 C-152.8229625 165.8042164 -158.0017183 162.84153651 -163 159 C-155.99787851 134.61192913 -136.14212212 109.25023259 -120 90 C-119.19046875 88.989375 -118.3809375 87.97875 -117.546875 86.9375 C-110.70136809 78.52646323 -103.07855432 70.86711717 -95.4375 63.1875 C-94.90678894 62.65152191 -94.37607788 62.11554382 -93.82928467 61.56332397 C-86.89253164 54.5734378 -79.77443414 48.06882966 -72 42 C-71.19876709 41.37037354 -70.39753418 40.74074707 -69.57202148 40.09204102 C-51.23745728 25.83182441 -31.98285383 14.06186612 -11.42724609 3.27685547 C-9.96899935 2.50974317 -8.5166029 1.7311188 -7.07666016 0.93017578 C-3.32689836 -1.10896612 -3.32689836 -1.10896612 0 0 Z " fill="#015850" transform="translate(226,32)"/>
</svg>
